<svg xmlns="http://www.w3.org/2000/svg" xmlns:xlink="http://www.w3.org/1999/xlink" width="500" zoomAndPan="magnify" viewBox="0 0 375 374.999991" height="500" preserveAspectRatio="xMidYMid meet" version="1.0"><defs><g/><clipPath id="3db691f060"><path d="M 110.171875 126.945312 L 211 126.945312 L 211 227.445312 L 110.171875 227.445312 Z M 110.171875 126.945312 " clip-rule="nonzero"/></clipPath><clipPath id="82ef4bd447"><path d="M 181 126.945312 L 260.921875 126.945312 L 260.921875 227.445312 L 181 227.445312 Z M 181 126.945312 " clip-rule="nonzero"/></clipPath><clipPath id="c565266bf6"><path d="M 0.160156 2 L 4 2 L 4 7 L 0.160156 7 Z M 0.160156 2 " clip-rule="nonzero"/></clipPath><clipPath id="f11b2e3a7e"><rect x="0" width="64" y="0" height="9"/></clipPath><clipPath id="6a00b687fb"><path d="M 0.160156 2 L 5 2 L 5 7 L 0.160156 7 Z M 0.160156 2 " clip-rule="nonzero"/></clipPath><clipPath id="3b047c1957"><path d="M 38 2 L 41.441406 2 L 41.441406 7 L 38 7 Z M 38 2 " clip-rule="nonzero"/></clipPath><clipPath id="aab702ba0b"><rect x="0" width="42" y="0" height="9"/></clipPath><clipPath id="d5b34986b2"><rect x="0" width="35" y="0" height="11"/></clipPath></defs><rect x="-37.5" width="450" fill="#ffffff" y="-37.499999" height="449.999989" fill-opacity="1"/><rect x="-37.5" width="450" fill="#000000" y="-37.499999" height="449.999989" fill-opacity="1"/><g clip-path="url(#3db691f060)"><path fill="#e7e3dd" d="M 165.550781 204.871094 L 146.769531 204.871094 L 160.265625 176.765625 L 174.273438 204.871094 L 180.582031 217.53125 C 183.640625 223.238281 191.292969 227.132812 198.945312 227.132812 L 210.355469 227.132812 L 199.21875 204.871094 L 189.816406 186.0625 L 171.496094 149.417969 L 160.261719 126.949219 L 110.171875 227.132812 L 143.289062 227.132812 C 155.535156 227.132812 165.550781 217.109375 165.550781 204.871094 Z M 165.550781 204.871094 " fill-opacity="1" fill-rule="nonzero"/></g><g clip-path="url(#82ef4bd447)"><path fill="#e7e3dd" d="M 211.082031 188.171875 L 230.558594 188.171875 C 235.152344 188.171875 238.90625 191.925781 238.90625 196.519531 C 238.90625 201.113281 235.152344 204.871094 230.558594 204.871094 L 209.324219 204.871094 L 220.460938 227.132812 L 230.558594 227.132812 C 247.394531 227.132812 261.167969 213.496094 261.167969 196.519531 C 261.167969 179.6875 247.394531 165.910156 230.558594 165.910156 L 211.082031 165.910156 C 206.488281 165.910156 202.734375 162.15625 202.734375 157.5625 C 202.734375 152.96875 206.488281 149.210938 211.082031 149.210938 L 230.558594 149.210938 C 242.804688 149.210938 252.820312 139.191406 252.820312 126.949219 L 211.082031 126.949219 C 196.953125 126.949219 185.164062 136.507812 181.601562 149.417969 L 199.921875 186.0625 C 203.382812 187.40625 207.132812 188.171875 211.082031 188.171875 Z M 211.082031 188.171875 " fill-opacity="1" fill-rule="nonzero"/></g><g transform="matrix(1, 0, 0, 1, 110, 259)"><g clip-path="url(#f11b2e3a7e)"><g clip-path="url(#c565266bf6)"><g fill="#e7e3dd" fill-opacity="1"><g transform="translate(0.173313, 6.692125)"><g><path d="M 2.859375 0 L 2.578125 -0.921875 L 1.171875 -0.921875 L 0.890625 0 L 0 0 L 1.375 -3.890625 L 2.375 -3.890625 L 3.75 0 Z M 2.390625 -1.609375 L 2.109375 -2.515625 C 2.085938 -2.578125 2.0625 -2.65625 2.03125 -2.75 C 2 -2.84375 1.96875 -2.9375 1.9375 -3.03125 C 1.914062 -3.132812 1.894531 -3.222656 1.875 -3.296875 C 1.851562 -3.222656 1.828125 -3.128906 1.796875 -3.015625 C 1.765625 -2.910156 1.734375 -2.8125 1.703125 -2.71875 C 1.679688 -2.625 1.664062 -2.554688 1.65625 -2.515625 L 1.375 -1.609375 Z M 2.390625 -1.609375 "/></g></g></g></g><g fill="#e7e3dd" fill-opacity="1"><g transform="translate(3.651573, 6.692125)"><g><path d="M 1.625 -3.875 C 1.96875 -3.875 2.253906 -3.832031 2.484375 -3.75 C 2.710938 -3.664062 2.882812 -3.535156 3 -3.359375 C 3.113281 -3.191406 3.171875 -2.976562 3.171875 -2.71875 C 3.171875 -2.539062 3.132812 -2.382812 3.0625 -2.25 C 3 -2.125 2.910156 -2.015625 2.796875 -1.921875 C 2.691406 -1.828125 2.578125 -1.75 2.453125 -1.6875 L 3.59375 0 L 2.671875 0 L 1.75 -1.484375 L 1.3125 -1.484375 L 1.3125 0 L 0.484375 0 L 0.484375 -3.875 Z M 1.5625 -3.203125 L 1.3125 -3.203125 L 1.3125 -2.15625 L 1.578125 -2.15625 C 1.847656 -2.15625 2.039062 -2.203125 2.15625 -2.296875 C 2.28125 -2.390625 2.34375 -2.523438 2.34375 -2.703125 C 2.34375 -2.878906 2.273438 -3.003906 2.140625 -3.078125 C 2.015625 -3.160156 1.820312 -3.203125 1.5625 -3.203125 Z M 1.5625 -3.203125 "/></g></g></g><g fill="#e7e3dd" fill-opacity="1"><g transform="translate(6.96769, 6.692125)"><g><path d="M 1.984375 0 L 1.15625 0 L 1.15625 -3.203125 L 0.109375 -3.203125 L 0.109375 -3.875 L 3.046875 -3.875 L 3.046875 -3.203125 L 1.984375 -3.203125 Z M 1.984375 0 "/></g></g></g><g fill="#e7e3dd" fill-opacity="1"><g transform="translate(9.842562, 6.692125)"><g><path d="M 0.484375 0 L 0.484375 -3.875 L 1.3125 -3.875 L 1.3125 0 Z M 0.484375 0 "/></g></g></g><g fill="#e7e3dd" fill-opacity="1"><g transform="translate(11.36712, 6.692125)"><g><path d="M 1.296875 0 L 0.484375 0 L 0.484375 -3.875 L 2.71875 -3.875 L 2.71875 -3.203125 L 1.296875 -3.203125 L 1.296875 -2.203125 L 2.609375 -2.203125 L 2.609375 -1.53125 L 1.296875 -1.53125 Z M 1.296875 0 "/></g></g></g><g fill="#e7e3dd" fill-opacity="1"><g transform="translate(14.07719, 6.692125)"><g><path d="M 0.484375 0 L 0.484375 -3.875 L 1.3125 -3.875 L 1.3125 0 Z M 0.484375 0 "/></g></g></g><g fill="#e7e3dd" fill-opacity="1"><g transform="translate(15.601748, 6.692125)"><g><path d="M 2.140625 -3.25 C 1.984375 -3.25 1.84375 -3.21875 1.71875 -3.15625 C 1.59375 -3.09375 1.488281 -3.003906 1.40625 -2.890625 C 1.332031 -2.773438 1.269531 -2.632812 1.21875 -2.46875 C 1.175781 -2.3125 1.15625 -2.132812 1.15625 -1.9375 C 1.15625 -1.65625 1.191406 -1.414062 1.265625 -1.21875 C 1.335938 -1.03125 1.441406 -0.882812 1.578125 -0.78125 C 1.722656 -0.675781 1.910156 -0.625 2.140625 -0.625 C 2.296875 -0.625 2.453125 -0.640625 2.609375 -0.671875 C 2.765625 -0.710938 2.9375 -0.769531 3.125 -0.84375 L 3.125 -0.140625 C 2.957031 -0.078125 2.789062 -0.03125 2.625 0 C 2.457031 0.03125 2.269531 0.046875 2.0625 0.046875 C 1.65625 0.046875 1.320312 -0.03125 1.0625 -0.1875 C 0.8125 -0.351562 0.625 -0.585938 0.5 -0.890625 C 0.375 -1.191406 0.3125 -1.539062 0.3125 -1.9375 C 0.3125 -2.226562 0.351562 -2.492188 0.4375 -2.734375 C 0.519531 -2.984375 0.632812 -3.195312 0.78125 -3.375 C 0.9375 -3.550781 1.128906 -3.6875 1.359375 -3.78125 C 1.585938 -3.882812 1.847656 -3.9375 2.140625 -3.9375 C 2.328125 -3.9375 2.519531 -3.910156 2.71875 -3.859375 C 2.914062 -3.816406 3.101562 -3.75 3.28125 -3.65625 L 3.015625 -3 C 2.867188 -3.0625 2.71875 -3.117188 2.5625 -3.171875 C 2.414062 -3.222656 2.273438 -3.25 2.140625 -3.25 Z M 2.140625 -3.25 "/></g></g></g><g fill="#e7e3dd" fill-opacity="1"><g transform="translate(18.792934, 6.692125)"><g><path d="M 0.484375 0 L 0.484375 -3.875 L 1.3125 -3.875 L 1.3125 0 Z M 0.484375 0 "/></g></g></g><g fill="#e7e3dd" fill-opacity="1"><g transform="translate(20.317492, 6.692125)"><g><path d="M 2.859375 0 L 2.578125 -0.921875 L 1.171875 -0.921875 L 0.890625 0 L 0 0 L 1.375 -3.890625 L 2.375 -3.890625 L 3.75 0 Z M 2.390625 -1.609375 L 2.109375 -2.515625 C 2.085938 -2.578125 2.0625 -2.65625 2.03125 -2.75 C 2 -2.84375 1.96875 -2.9375 1.9375 -3.03125 C 1.914062 -3.132812 1.894531 -3.222656 1.875 -3.296875 C 1.851562 -3.222656 1.828125 -3.128906 1.796875 -3.015625 C 1.765625 -2.910156 1.734375 -2.8125 1.703125 -2.71875 C 1.679688 -2.625 1.664062 -2.554688 1.65625 -2.515625 L 1.375 -1.609375 Z M 2.390625 -1.609375 "/></g></g></g><g fill="#e7e3dd" fill-opacity="1"><g transform="translate(23.795752, 6.692125)"><g><path d="M 0.484375 0 L 0.484375 -3.875 L 1.3125 -3.875 L 1.3125 -0.6875 L 2.890625 -0.6875 L 2.890625 0 Z M 0.484375 0 "/></g></g></g><g fill="#e7e3dd" fill-opacity="1"><g transform="translate(26.593539, 6.692125)"><g/></g></g><g fill="#e7e3dd" fill-opacity="1"><g transform="translate(27.730015, 6.692125)"><g><path d="M 0.484375 0 L 0.484375 -3.875 L 1.3125 -3.875 L 1.3125 0 Z M 0.484375 0 "/></g></g></g><g fill="#e7e3dd" fill-opacity="1"><g transform="translate(29.254573, 6.692125)"><g><path d="M 3.9375 0 L 2.890625 0 L 1.203125 -2.9375 L 1.171875 -2.9375 C 1.179688 -2.8125 1.1875 -2.6875 1.1875 -2.5625 C 1.195312 -2.4375 1.203125 -2.3125 1.203125 -2.1875 C 1.210938 -2.070312 1.21875 -1.953125 1.21875 -1.828125 L 1.21875 0 L 0.484375 0 L 0.484375 -3.875 L 1.53125 -3.875 L 3.21875 -0.96875 L 3.234375 -0.96875 C 3.222656 -1.09375 3.210938 -1.210938 3.203125 -1.328125 C 3.203125 -1.453125 3.203125 -1.570312 3.203125 -1.6875 C 3.203125 -1.800781 3.195312 -1.921875 3.1875 -2.046875 L 3.1875 -3.875 L 3.9375 -3.875 Z M 3.9375 0 "/></g></g></g><g fill="#e7e3dd" fill-opacity="1"><g transform="translate(33.402674, 6.692125)"><g><path d="M 1.984375 0 L 1.15625 0 L 1.15625 -3.203125 L 0.109375 -3.203125 L 0.109375 -3.875 L 3.046875 -3.875 L 3.046875 -3.203125 L 1.984375 -3.203125 Z M 1.984375 0 "/></g></g></g><g fill="#e7e3dd" fill-opacity="1"><g transform="translate(36.277547, 6.692125)"><g><path d="M 2.71875 0 L 0.484375 0 L 0.484375 -3.875 L 2.71875 -3.875 L 2.71875 -3.203125 L 1.3125 -3.203125 L 1.3125 -2.359375 L 2.625 -2.359375 L 2.625 -1.6875 L 1.3125 -1.6875 L 1.3125 -0.6875 L 2.71875 -0.6875 Z M 2.71875 0 "/></g></g></g><g fill="#e7e3dd" fill-opacity="1"><g transform="translate(39.048753, 6.692125)"><g><path d="M 0.484375 0 L 0.484375 -3.875 L 1.3125 -3.875 L 1.3125 -0.6875 L 2.890625 -0.6875 L 2.890625 0 Z M 0.484375 0 "/></g></g></g><g fill="#e7e3dd" fill-opacity="1"><g transform="translate(41.84654, 6.692125)"><g><path d="M 0.484375 0 L 0.484375 -3.875 L 1.3125 -3.875 L 1.3125 -0.6875 L 2.890625 -0.6875 L 2.890625 0 Z M 0.484375 0 "/></g></g></g><g fill="#e7e3dd" fill-opacity="1"><g transform="translate(44.644327, 6.692125)"><g><path d="M 0.484375 0 L 0.484375 -3.875 L 1.3125 -3.875 L 1.3125 0 Z M 0.484375 0 "/></g></g></g><g fill="#e7e3dd" fill-opacity="1"><g transform="translate(46.168885, 6.692125)"><g><path d="M 1.96875 -2.1875 L 3.5 -2.1875 L 3.5 -0.171875 C 3.300781 -0.0976562 3.085938 -0.0390625 2.859375 0 C 2.640625 0.03125 2.394531 0.046875 2.125 0.046875 C 1.738281 0.046875 1.410156 -0.0234375 1.140625 -0.171875 C 0.867188 -0.328125 0.660156 -0.550781 0.515625 -0.84375 C 0.378906 -1.144531 0.3125 -1.515625 0.3125 -1.953125 C 0.3125 -2.359375 0.390625 -2.707031 0.546875 -3 C 0.703125 -3.300781 0.929688 -3.53125 1.234375 -3.6875 C 1.535156 -3.851562 1.90625 -3.9375 2.34375 -3.9375 C 2.550781 -3.9375 2.753906 -3.910156 2.953125 -3.859375 C 3.148438 -3.816406 3.332031 -3.765625 3.5 -3.703125 L 3.21875 -3.046875 C 3.101562 -3.097656 2.96875 -3.144531 2.8125 -3.1875 C 2.664062 -3.226562 2.507812 -3.25 2.34375 -3.25 C 2.101562 -3.25 1.894531 -3.191406 1.71875 -3.078125 C 1.539062 -2.972656 1.398438 -2.820312 1.296875 -2.625 C 1.203125 -2.425781 1.15625 -2.195312 1.15625 -1.9375 C 1.15625 -1.675781 1.191406 -1.445312 1.265625 -1.25 C 1.335938 -1.0625 1.445312 -0.910156 1.59375 -0.796875 C 1.738281 -0.679688 1.929688 -0.625 2.171875 -0.625 C 2.285156 -0.625 2.382812 -0.628906 2.46875 -0.640625 C 2.550781 -0.660156 2.628906 -0.675781 2.703125 -0.6875 L 2.703125 -1.5 L 1.96875 -1.5 Z M 1.96875 -2.1875 "/></g></g></g><g fill="#e7e3dd" fill-opacity="1"><g transform="translate(49.833213, 6.692125)"><g><path d="M 2.71875 0 L 0.484375 0 L 0.484375 -3.875 L 2.71875 -3.875 L 2.71875 -3.203125 L 1.3125 -3.203125 L 1.3125 -2.359375 L 2.625 -2.359375 L 2.625 -1.6875 L 1.3125 -1.6875 L 1.3125 -0.6875 L 2.71875 -0.6875 Z M 2.71875 0 "/></g></g></g><g fill="#e7e3dd" fill-opacity="1"><g transform="translate(52.604419, 6.692125)"><g><path d="M 3.9375 0 L 2.890625 0 L 1.203125 -2.9375 L 1.171875 -2.9375 C 1.179688 -2.8125 1.1875 -2.6875 1.1875 -2.5625 C 1.195312 -2.4375 1.203125 -2.3125 1.203125 -2.1875 C 1.210938 -2.070312 1.21875 -1.953125 1.21875 -1.828125 L 1.21875 0 L 0.484375 0 L 0.484375 -3.875 L 1.53125 -3.875 L 3.21875 -0.96875 L 3.234375 -0.96875 C 3.222656 -1.09375 3.210938 -1.210938 3.203125 -1.328125 C 3.203125 -1.453125 3.203125 -1.570312 3.203125 -1.6875 C 3.203125 -1.800781 3.195312 -1.921875 3.1875 -2.046875 L 3.1875 -3.875 L 3.9375 -3.875 Z M 3.9375 0 "/></g></g></g><g fill="#e7e3dd" fill-opacity="1"><g transform="translate(56.75252, 6.692125)"><g><path d="M 2.140625 -3.25 C 1.984375 -3.25 1.84375 -3.21875 1.71875 -3.15625 C 1.59375 -3.09375 1.488281 -3.003906 1.40625 -2.890625 C 1.332031 -2.773438 1.269531 -2.632812 1.21875 -2.46875 C 1.175781 -2.3125 1.15625 -2.132812 1.15625 -1.9375 C 1.15625 -1.65625 1.191406 -1.414062 1.265625 -1.21875 C 1.335938 -1.03125 1.441406 -0.882812 1.578125 -0.78125 C 1.722656 -0.675781 1.910156 -0.625 2.140625 -0.625 C 2.296875 -0.625 2.453125 -0.640625 2.609375 -0.671875 C 2.765625 -0.710938 2.9375 -0.769531 3.125 -0.84375 L 3.125 -0.140625 C 2.957031 -0.078125 2.789062 -0.03125 2.625 0 C 2.457031 0.03125 2.269531 0.046875 2.0625 0.046875 C 1.65625 0.046875 1.320312 -0.03125 1.0625 -0.1875 C 0.8125 -0.351562 0.625 -0.585938 0.5 -0.890625 C 0.375 -1.191406 0.3125 -1.539062 0.3125 -1.9375 C 0.3125 -2.226562 0.351562 -2.492188 0.4375 -2.734375 C 0.519531 -2.984375 0.632812 -3.195312 0.78125 -3.375 C 0.9375 -3.550781 1.128906 -3.6875 1.359375 -3.78125 C 1.585938 -3.882812 1.847656 -3.9375 2.140625 -3.9375 C 2.328125 -3.9375 2.519531 -3.910156 2.71875 -3.859375 C 2.914062 -3.816406 3.101562 -3.75 3.28125 -3.65625 L 3.015625 -3 C 2.867188 -3.0625 2.71875 -3.117188 2.5625 -3.171875 C 2.414062 -3.222656 2.273438 -3.25 2.140625 -3.25 Z M 2.140625 -3.25 "/></g></g></g><g fill="#e7e3dd" fill-opacity="1"><g transform="translate(59.943706, 6.692125)"><g><path d="M 2.71875 0 L 0.484375 0 L 0.484375 -3.875 L 2.71875 -3.875 L 2.71875 -3.203125 L 1.3125 -3.203125 L 1.3125 -2.359375 L 2.625 -2.359375 L 2.625 -1.6875 L 1.3125 -1.6875 L 1.3125 -0.6875 L 2.71875 -0.6875 Z M 2.71875 0 "/></g></g></g></g></g><g transform="matrix(1, 0, 0, 1, 110, 266)"><g clip-path="url(#aab702ba0b)"><g clip-path="url(#6a00b687fb)"><g fill="#e7e3dd" fill-opacity="1"><g transform="translate(0.173313, 6.746915)"><g><path d="M 1.625 -3.796875 C 1.832031 -3.796875 2.015625 -3.765625 2.171875 -3.703125 C 2.328125 -3.640625 2.445312 -3.546875 2.53125 -3.421875 C 2.625 -3.304688 2.671875 -3.160156 2.671875 -2.984375 C 2.671875 -2.742188 2.597656 -2.539062 2.453125 -2.375 C 2.316406 -2.21875 2.140625 -2.078125 1.921875 -1.953125 L 2.65625 -1.234375 C 2.726562 -1.359375 2.789062 -1.484375 2.84375 -1.609375 C 2.894531 -1.742188 2.9375 -1.878906 2.96875 -2.015625 L 3.78125 -2.015625 C 3.726562 -1.816406 3.648438 -1.601562 3.546875 -1.375 C 3.453125 -1.15625 3.328125 -0.945312 3.171875 -0.75 L 3.9375 0 L 2.96875 0 L 2.671875 -0.296875 C 2.578125 -0.222656 2.46875 -0.160156 2.34375 -0.109375 C 2.226562 -0.0546875 2.101562 -0.0195312 1.96875 0 C 1.84375 0.03125 1.707031 0.046875 1.5625 0.046875 C 1.28125 0.046875 1.035156 0.00390625 0.828125 -0.078125 C 0.628906 -0.171875 0.472656 -0.296875 0.359375 -0.453125 C 0.253906 -0.609375 0.203125 -0.796875 0.203125 -1.015625 C 0.203125 -1.191406 0.226562 -1.34375 0.28125 -1.46875 C 0.34375 -1.59375 0.425781 -1.703125 0.53125 -1.796875 C 0.632812 -1.898438 0.753906 -1.992188 0.890625 -2.078125 C 0.804688 -2.179688 0.734375 -2.28125 0.671875 -2.375 C 0.617188 -2.46875 0.582031 -2.554688 0.5625 -2.640625 C 0.539062 -2.734375 0.53125 -2.832031 0.53125 -2.9375 C 0.53125 -3.113281 0.578125 -3.265625 0.671875 -3.390625 C 0.765625 -3.523438 0.894531 -3.625 1.0625 -3.6875 C 1.226562 -3.757812 1.414062 -3.796875 1.625 -3.796875 Z M 1.359375 -1.609375 C 1.285156 -1.554688 1.222656 -1.503906 1.171875 -1.453125 C 1.128906 -1.398438 1.09375 -1.34375 1.0625 -1.28125 C 1.039062 -1.21875 1.03125 -1.15625 1.03125 -1.09375 C 1.03125 -0.9375 1.085938 -0.816406 1.203125 -0.734375 C 1.316406 -0.648438 1.457031 -0.609375 1.625 -0.609375 C 1.738281 -0.609375 1.84375 -0.617188 1.9375 -0.640625 C 2.03125 -0.671875 2.117188 -0.710938 2.203125 -0.765625 Z M 1.625 -3.203125 C 1.53125 -3.203125 1.441406 -3.175781 1.359375 -3.125 C 1.285156 -3.082031 1.25 -3 1.25 -2.875 C 1.25 -2.789062 1.269531 -2.707031 1.3125 -2.625 C 1.363281 -2.550781 1.425781 -2.472656 1.5 -2.390625 C 1.644531 -2.460938 1.753906 -2.539062 1.828125 -2.625 C 1.910156 -2.707031 1.953125 -2.800781 1.953125 -2.90625 C 1.953125 -3.007812 1.914062 -3.082031 1.84375 -3.125 C 1.769531 -3.175781 1.695312 -3.203125 1.625 -3.203125 Z M 1.625 -3.203125 "/></g></g></g></g><g fill="#e7e3dd" fill-opacity="1"><g transform="translate(3.846347, 6.746915)"><g/></g></g><g fill="#e7e3dd" fill-opacity="1"><g transform="translate(4.943348, 6.746915)"><g><path d="M 3.578125 -1.90625 C 3.578125 -1.488281 3.492188 -1.132812 3.328125 -0.84375 C 3.171875 -0.5625 2.9375 -0.347656 2.625 -0.203125 C 2.320312 -0.0664062 1.957031 0 1.53125 0 L 0.46875 0 L 0.46875 -3.75 L 1.640625 -3.75 C 2.035156 -3.75 2.378906 -3.675781 2.671875 -3.53125 C 2.960938 -3.394531 3.1875 -3.191406 3.34375 -2.921875 C 3.5 -2.648438 3.578125 -2.3125 3.578125 -1.90625 Z M 2.75 -1.890625 C 2.75 -2.160156 2.707031 -2.382812 2.625 -2.5625 C 2.550781 -2.75 2.429688 -2.882812 2.265625 -2.96875 C 2.109375 -3.050781 1.914062 -3.09375 1.6875 -3.09375 L 1.265625 -3.09375 L 1.265625 -0.65625 L 1.609375 -0.65625 C 1.992188 -0.65625 2.28125 -0.757812 2.46875 -0.96875 C 2.65625 -1.175781 2.75 -1.484375 2.75 -1.890625 Z M 2.75 -1.890625 "/></g></g></g><g fill="#e7e3dd" fill-opacity="1"><g transform="translate(8.565067, 6.746915)"><g><path d="M 2.625 0 L 0.46875 0 L 0.46875 -3.75 L 2.625 -3.75 L 2.625 -3.09375 L 1.265625 -3.09375 L 1.265625 -2.28125 L 2.53125 -2.28125 L 2.53125 -1.625 L 1.265625 -1.625 L 1.265625 -0.65625 L 2.625 -0.65625 Z M 2.625 0 "/></g></g></g><g fill="#e7e3dd" fill-opacity="1"><g transform="translate(11.240016, 6.746915)"><g><path d="M 3.40625 -3.75 L 2.140625 0 L 1.265625 0 L 0 -3.75 L 0.796875 -3.75 L 1.5 -1.515625 C 1.519531 -1.484375 1.539062 -1.414062 1.5625 -1.3125 C 1.59375 -1.207031 1.617188 -1.097656 1.640625 -0.984375 C 1.671875 -0.867188 1.691406 -0.769531 1.703125 -0.6875 C 1.710938 -0.769531 1.726562 -0.867188 1.75 -0.984375 C 1.78125 -1.097656 1.804688 -1.203125 1.828125 -1.296875 C 1.859375 -1.398438 1.882812 -1.472656 1.90625 -1.515625 L 2.609375 -3.75 Z M 3.40625 -3.75 "/></g></g></g><g fill="#e7e3dd" fill-opacity="1"><g transform="translate(14.387068, 6.746915)"><g><path d="M 2.625 0 L 0.46875 0 L 0.46875 -3.75 L 2.625 -3.75 L 2.625 -3.09375 L 1.265625 -3.09375 L 1.265625 -2.28125 L 2.53125 -2.28125 L 2.53125 -1.625 L 1.265625 -1.625 L 1.265625 -0.65625 L 2.625 -0.65625 Z M 2.625 0 "/></g></g></g><g fill="#e7e3dd" fill-opacity="1"><g transform="translate(17.062017, 6.746915)"><g><path d="M 0.46875 0 L 0.46875 -3.75 L 1.265625 -3.75 L 1.265625 -0.65625 L 2.78125 -0.65625 L 2.78125 0 Z M 0.46875 0 "/></g></g></g><g fill="#e7e3dd" fill-opacity="1"><g transform="translate(19.762625, 6.746915)"><g><path d="M 3.875 -1.875 C 3.875 -1.59375 3.835938 -1.332031 3.765625 -1.09375 C 3.691406 -0.851562 3.582031 -0.644531 3.4375 -0.46875 C 3.289062 -0.300781 3.101562 -0.171875 2.875 -0.078125 C 2.65625 0.00390625 2.394531 0.046875 2.09375 0.046875 C 1.78125 0.046875 1.507812 0.00390625 1.28125 -0.078125 C 1.0625 -0.171875 0.878906 -0.300781 0.734375 -0.46875 C 0.585938 -0.644531 0.476562 -0.851562 0.40625 -1.09375 C 0.34375 -1.332031 0.3125 -1.597656 0.3125 -1.890625 C 0.3125 -2.273438 0.375 -2.609375 0.5 -2.890625 C 0.625 -3.179688 0.816406 -3.40625 1.078125 -3.5625 C 1.347656 -3.726562 1.6875 -3.8125 2.09375 -3.8125 C 2.5 -3.8125 2.832031 -3.726562 3.09375 -3.5625 C 3.351562 -3.40625 3.546875 -3.179688 3.671875 -2.890625 C 3.804688 -2.609375 3.875 -2.269531 3.875 -1.875 Z M 1.140625 -1.875 C 1.140625 -1.613281 1.171875 -1.390625 1.234375 -1.203125 C 1.296875 -1.015625 1.394531 -0.867188 1.53125 -0.765625 C 1.675781 -0.660156 1.863281 -0.609375 2.09375 -0.609375 C 2.3125 -0.609375 2.488281 -0.660156 2.625 -0.765625 C 2.769531 -0.867188 2.875 -1.015625 2.9375 -1.203125 C 3.007812 -1.390625 3.046875 -1.613281 3.046875 -1.875 C 3.046875 -2.269531 2.96875 -2.578125 2.8125 -2.796875 C 2.664062 -3.023438 2.425781 -3.140625 2.09375 -3.140625 C 1.875 -3.140625 1.691406 -3.085938 1.546875 -2.984375 C 1.398438 -2.890625 1.296875 -2.75 1.234375 -2.5625 C 1.171875 -2.375 1.140625 -2.144531 1.140625 -1.875 Z M 1.140625 -1.875 "/></g></g></g><g fill="#e7e3dd" fill-opacity="1"><g transform="translate(23.676842, 6.746915)"><g><path d="M 1.671875 -3.75 C 2.148438 -3.75 2.5 -3.644531 2.71875 -3.4375 C 2.945312 -3.226562 3.0625 -2.941406 3.0625 -2.578125 C 3.0625 -2.410156 3.035156 -2.253906 2.984375 -2.109375 C 2.929688 -1.960938 2.847656 -1.828125 2.734375 -1.703125 C 2.628906 -1.585938 2.484375 -1.492188 2.296875 -1.421875 C 2.109375 -1.359375 1.878906 -1.328125 1.609375 -1.328125 L 1.265625 -1.328125 L 1.265625 0 L 0.46875 0 L 0.46875 -3.75 Z M 1.625 -3.09375 L 1.265625 -3.09375 L 1.265625 -1.984375 L 1.53125 -1.984375 C 1.675781 -1.984375 1.800781 -2.003906 1.90625 -2.046875 C 2.019531 -2.085938 2.109375 -2.148438 2.171875 -2.234375 C 2.234375 -2.316406 2.265625 -2.421875 2.265625 -2.546875 C 2.265625 -2.734375 2.210938 -2.867188 2.109375 -2.953125 C 2.003906 -3.046875 1.84375 -3.09375 1.625 -3.09375 Z M 1.625 -3.09375 "/></g></g></g><g fill="#e7e3dd" fill-opacity="1"><g transform="translate(26.708433, 6.746915)"><g><path d="M 2.0625 0 L 1.15625 -2.9375 L 1.140625 -2.9375 C 1.140625 -2.863281 1.140625 -2.753906 1.140625 -2.609375 C 1.148438 -2.472656 1.160156 -2.328125 1.171875 -2.171875 C 1.179688 -2.015625 1.1875 -1.875 1.1875 -1.75 L 1.1875 0 L 0.46875 0 L 0.46875 -3.75 L 1.546875 -3.75 L 2.4375 -0.875 L 2.453125 -0.875 L 3.390625 -3.75 L 4.484375 -3.75 L 4.484375 0 L 3.734375 0 L 3.734375 -1.78125 C 3.734375 -1.894531 3.734375 -2.023438 3.734375 -2.171875 C 3.742188 -2.328125 3.75 -2.472656 3.75 -2.609375 C 3.757812 -2.753906 3.769531 -2.863281 3.78125 -2.9375 L 3.75 -2.9375 L 2.78125 0 Z M 2.0625 0 "/></g></g></g><g fill="#e7e3dd" fill-opacity="1"><g transform="translate(31.394947, 6.746915)"><g><path d="M 2.625 0 L 0.46875 0 L 0.46875 -3.75 L 2.625 -3.75 L 2.625 -3.09375 L 1.265625 -3.09375 L 1.265625 -2.28125 L 2.53125 -2.28125 L 2.53125 -1.625 L 1.265625 -1.625 L 1.265625 -0.65625 L 2.625 -0.65625 Z M 2.625 0 "/></g></g></g><g fill="#e7e3dd" fill-opacity="1"><g transform="translate(34.069897, 6.746915)"><g><path d="M 3.796875 0 L 2.78125 0 L 1.15625 -2.828125 L 1.140625 -2.828125 C 1.140625 -2.710938 1.140625 -2.59375 1.140625 -2.46875 C 1.148438 -2.351562 1.15625 -2.234375 1.15625 -2.109375 C 1.164062 -1.992188 1.175781 -1.878906 1.1875 -1.765625 L 1.1875 0 L 0.46875 0 L 0.46875 -3.75 L 1.46875 -3.75 L 3.109375 -0.9375 L 3.125 -0.9375 C 3.113281 -1.050781 3.101562 -1.164062 3.09375 -1.28125 C 3.09375 -1.394531 3.09375 -1.507812 3.09375 -1.625 C 3.09375 -1.738281 3.085938 -1.851562 3.078125 -1.96875 L 3.078125 -3.75 L 3.796875 -3.75 Z M 3.796875 0 "/></g></g></g><g clip-path="url(#3b047c1957)"><g fill="#e7e3dd" fill-opacity="1"><g transform="translate(38.073916, 6.746915)"><g><path d="M 1.921875 0 L 1.125 0 L 1.125 -3.09375 L 0.109375 -3.09375 L 0.109375 -3.75 L 2.9375 -3.75 L 2.9375 -3.09375 L 1.921875 -3.09375 Z M 1.921875 0 "/></g></g></g></g></g></g><g transform="matrix(1, 0, 0, 1, 231, 264)"><g clip-path="url(#d5b34986b2)"><g fill="#e7e3dd" fill-opacity="1"><g transform="translate(1.043906, 8.340853)"><g><path d="M 2.71875 0 L 1.53125 -3.890625 L 1.5 -3.890625 C 1.5 -3.796875 1.503906 -3.65625 1.515625 -3.46875 C 1.523438 -3.28125 1.535156 -3.082031 1.546875 -2.875 C 1.554688 -2.664062 1.5625 -2.472656 1.5625 -2.296875 L 1.5625 0 L 0.625 0 L 0.625 -4.953125 L 2.046875 -4.953125 L 3.21875 -1.171875 L 3.25 -1.171875 L 4.484375 -4.953125 L 5.921875 -4.953125 L 5.921875 0 L 4.9375 0 L 4.9375 -2.34375 C 4.9375 -2.5 4.9375 -2.675781 4.9375 -2.875 C 4.945312 -3.082031 4.957031 -3.273438 4.96875 -3.453125 C 4.976562 -3.640625 4.984375 -3.78125 4.984375 -3.875 L 4.953125 -3.875 L 3.6875 0 Z M 2.71875 0 "/></g></g></g><g fill="#e7e3dd" fill-opacity="1"><g transform="translate(7.229047, 8.340853)"><g><path d="M 3.65625 0 L 3.296875 -1.171875 L 1.484375 -1.171875 L 1.125 0 L 0 0 L 1.75 -4.96875 L 3.03125 -4.96875 L 4.78125 0 Z M 3.046875 -2.0625 L 2.6875 -3.21875 C 2.664062 -3.289062 2.632812 -3.382812 2.59375 -3.5 C 2.5625 -3.625 2.523438 -3.75 2.484375 -3.875 C 2.441406 -4 2.410156 -4.109375 2.390625 -4.203125 C 2.367188 -4.109375 2.335938 -3.992188 2.296875 -3.859375 C 2.265625 -3.722656 2.226562 -3.59375 2.1875 -3.46875 C 2.15625 -3.351562 2.128906 -3.269531 2.109375 -3.21875 L 1.75 -2.0625 Z M 3.046875 -2.0625 "/></g></g></g><g fill="#e7e3dd" fill-opacity="1"><g transform="translate(11.660117, 8.340853)"><g><path d="M 0.625 0 L 0.625 -4.953125 L 1.671875 -4.953125 L 1.671875 -0.875 L 3.6875 -0.875 L 3.6875 0 Z M 0.625 0 "/></g></g></g><g fill="#e7e3dd" fill-opacity="1"><g transform="translate(15.224309, 8.340853)"><g><path d="M 3.65625 0 L 3.296875 -1.171875 L 1.484375 -1.171875 L 1.125 0 L 0 0 L 1.75 -4.96875 L 3.03125 -4.96875 L 4.78125 0 Z M 3.046875 -2.0625 L 2.6875 -3.21875 C 2.664062 -3.289062 2.632812 -3.382812 2.59375 -3.5 C 2.5625 -3.625 2.523438 -3.75 2.484375 -3.875 C 2.441406 -4 2.410156 -4.109375 2.390625 -4.203125 C 2.367188 -4.109375 2.335938 -3.992188 2.296875 -3.859375 C 2.265625 -3.722656 2.226562 -3.59375 2.1875 -3.46875 C 2.15625 -3.351562 2.128906 -3.269531 2.109375 -3.21875 L 1.75 -2.0625 Z M 3.046875 -2.0625 "/></g></g></g><g fill="#e7e3dd" fill-opacity="1"><g transform="translate(19.655379, 8.340853)"><g><path d="M 2.171875 -2.90625 L 3.203125 -4.953125 L 4.328125 -4.953125 L 2.6875 -1.921875 L 2.6875 0 L 1.640625 0 L 1.640625 -1.890625 L 0 -4.953125 L 1.140625 -4.953125 Z M 2.171875 -2.90625 "/></g></g></g><g fill="#e7e3dd" fill-opacity="1"><g transform="translate(23.629306, 8.340853)"><g><path d="M 3.546875 -1.375 C 3.546875 -1.082031 3.472656 -0.828125 3.328125 -0.609375 C 3.191406 -0.390625 2.984375 -0.222656 2.703125 -0.109375 C 2.429688 0.00390625 2.101562 0.0625 1.71875 0.0625 C 1.550781 0.0625 1.382812 0.0507812 1.21875 0.03125 C 1.050781 0.0078125 0.890625 -0.0195312 0.734375 -0.0625 C 0.585938 -0.101562 0.445312 -0.160156 0.3125 -0.234375 L 0.3125 -1.203125 C 0.550781 -1.097656 0.796875 -1.003906 1.046875 -0.921875 C 1.296875 -0.835938 1.546875 -0.796875 1.796875 -0.796875 C 1.972656 -0.796875 2.113281 -0.816406 2.21875 -0.859375 C 2.320312 -0.910156 2.394531 -0.972656 2.4375 -1.046875 C 2.488281 -1.128906 2.515625 -1.222656 2.515625 -1.328125 C 2.515625 -1.453125 2.472656 -1.554688 2.390625 -1.640625 C 2.304688 -1.734375 2.191406 -1.816406 2.046875 -1.890625 C 1.898438 -1.960938 1.738281 -2.046875 1.5625 -2.140625 C 1.4375 -2.191406 1.304688 -2.253906 1.171875 -2.328125 C 1.035156 -2.410156 0.90625 -2.507812 0.78125 -2.625 C 0.664062 -2.738281 0.566406 -2.875 0.484375 -3.03125 C 0.410156 -3.195312 0.375 -3.390625 0.375 -3.609375 C 0.375 -3.910156 0.441406 -4.164062 0.578125 -4.375 C 0.710938 -4.582031 0.90625 -4.742188 1.15625 -4.859375 C 1.40625 -4.972656 1.703125 -5.03125 2.046875 -5.03125 C 2.304688 -5.03125 2.550781 -5 2.78125 -4.9375 C 3.019531 -4.875 3.265625 -4.785156 3.515625 -4.671875 L 3.1875 -3.859375 C 2.957031 -3.953125 2.75 -4.023438 2.5625 -4.078125 C 2.382812 -4.128906 2.203125 -4.15625 2.015625 -4.15625 C 1.890625 -4.15625 1.78125 -4.132812 1.6875 -4.09375 C 1.59375 -4.050781 1.519531 -3.988281 1.46875 -3.90625 C 1.425781 -3.832031 1.40625 -3.742188 1.40625 -3.640625 C 1.40625 -3.523438 1.4375 -3.425781 1.5 -3.34375 C 1.570312 -3.269531 1.675781 -3.195312 1.8125 -3.125 C 1.957031 -3.050781 2.132812 -2.960938 2.34375 -2.859375 C 2.59375 -2.734375 2.804688 -2.609375 2.984375 -2.484375 C 3.160156 -2.359375 3.296875 -2.207031 3.390625 -2.03125 C 3.492188 -1.851562 3.546875 -1.632812 3.546875 -1.375 Z M 3.546875 -1.375 "/></g></g></g><g fill="#e7e3dd" fill-opacity="1"><g transform="translate(27.095298, 8.340853)"><g><path d="M 0.625 0 L 0.625 -4.953125 L 1.671875 -4.953125 L 1.671875 0 Z M 0.625 0 "/></g></g></g><g fill="#e7e3dd" fill-opacity="1"><g transform="translate(29.037482, 8.340853)"><g><path d="M 3.65625 0 L 3.296875 -1.171875 L 1.484375 -1.171875 L 1.125 0 L 0 0 L 1.75 -4.96875 L 3.03125 -4.96875 L 4.78125 0 Z M 3.046875 -2.0625 L 2.6875 -3.21875 C 2.664062 -3.289062 2.632812 -3.382812 2.59375 -3.5 C 2.5625 -3.625 2.523438 -3.75 2.484375 -3.875 C 2.441406 -4 2.410156 -4.109375 2.390625 -4.203125 C 2.367188 -4.109375 2.335938 -3.992188 2.296875 -3.859375 C 2.265625 -3.722656 2.226562 -3.59375 2.1875 -3.46875 C 2.15625 -3.351562 2.128906 -3.269531 2.109375 -3.21875 L 1.75 -2.0625 Z M 3.046875 -2.0625 "/></g></g></g></g></g><g fill="#e7e3dd" fill-opacity="1"><g transform="translate(110.302219, 249.585027)"><g><path d="M 10.875 0 L 8.515625 0 L 7.671875 -2.609375 L 3.328125 -2.609375 L 2.46875 0 L 0.171875 0 L 4.078125 -11.328125 L 6.953125 -11.328125 Z M 5.390625 -8.96875 L 3.9375 -4.5 L 7.046875 -4.5 L 5.578125 -8.96875 Z M 5.390625 -8.96875 "/></g></g></g><g fill="#e7e3dd" fill-opacity="1"><g transform="translate(121.017161, 249.585027)"><g><path d="M 6 0.15625 C 4.445312 0.15625 3.289062 -0.210938 2.53125 -0.953125 C 1.78125 -1.691406 1.40625 -2.789062 1.40625 -4.25 L 1.40625 -11.328125 L 3.59375 -11.328125 L 3.59375 -4.265625 C 3.59375 -3.429688 3.789062 -2.804688 4.1875 -2.390625 C 4.59375 -1.984375 5.195312 -1.78125 6 -1.78125 C 7.613281 -1.78125 8.421875 -2.609375 8.421875 -4.265625 L 8.421875 -11.328125 L 10.609375 -11.328125 L 10.609375 -4.25 C 10.609375 -2.789062 10.226562 -1.691406 9.46875 -0.953125 C 8.71875 -0.210938 7.5625 0.15625 6 0.15625 Z M 6 0.15625 "/></g></g></g><g fill="#e7e3dd" fill-opacity="1"><g transform="translate(133.026018, 249.585027)"><g><path d="M 1.46875 0 L 1.46875 -11.328125 L 6.015625 -11.328125 C 7.191406 -11.328125 8.078125 -11.054688 8.671875 -10.515625 C 9.273438 -9.984375 9.578125 -9.238281 9.578125 -8.28125 C 9.578125 -7.59375 9.398438 -7.03125 9.046875 -6.59375 C 8.703125 -6.15625 8.179688 -5.820312 7.484375 -5.59375 L 7.484375 -5.421875 C 7.835938 -5.265625 8.125 -5.035156 8.34375 -4.734375 C 8.570312 -4.429688 8.78125 -3.976562 8.96875 -3.375 L 10.109375 0 L 7.8125 0 L 6.703125 -3.390625 C 6.585938 -3.734375 6.457031 -4 6.3125 -4.1875 C 6.164062 -4.375 5.984375 -4.507812 5.765625 -4.59375 C 5.546875 -4.675781 5.265625 -4.71875 4.921875 -4.71875 L 3.71875 -4.71875 L 3.71875 0 Z M 5.75 -6.5 C 6.832031 -6.5 7.375 -7.003906 7.375 -8.015625 C 7.375 -9.046875 6.832031 -9.5625 5.75 -9.5625 L 3.71875 -9.5625 L 3.71875 -6.5 Z M 5.75 -6.5 "/></g></g></g><g fill="#e7e3dd" fill-opacity="1"><g transform="translate(143.617055, 249.585027)"><g><path d="M 3.71875 -4.96875 L 3.71875 -1.875 L 9.125 -1.875 L 9.125 0 L 1.46875 0 L 1.46875 -11.328125 L 9 -11.328125 L 9 -9.453125 L 3.71875 -9.453125 L 3.71875 -6.8125 L 8.328125 -6.8125 L 8.328125 -4.96875 Z M 3.71875 -4.96875 "/></g></g></g><g fill="#e7e3dd" fill-opacity="1"><g transform="translate(153.355851, 249.585027)"><g><path d="M 2.484375 0 L 0.1875 0 L 3.546875 -5.828125 L 0.359375 -11.328125 L 2.734375 -11.328125 L 5.078125 -7.265625 L 5.28125 -7.265625 L 7.671875 -11.328125 L 9.921875 -11.328125 L 6.734375 -5.828125 L 10.09375 0 L 7.71875 0 L 5.203125 -4.375 L 5 -4.375 Z M 2.484375 0 "/></g></g></g><g fill="#e7e3dd" fill-opacity="1"><g transform="translate(163.636982, 249.585027)"><g><path d="M 3.71875 0 L 1.46875 0 L 1.46875 -11.328125 L 3.71875 -11.328125 Z M 3.71875 0 "/></g></g></g><g fill="#e7e3dd" fill-opacity="1"><g transform="translate(168.827907, 249.585027)"><g><path d="M 5.015625 0.15625 C 4.234375 0.15625 3.535156 0.0625 2.921875 -0.125 C 2.304688 -0.320312 1.796875 -0.578125 1.390625 -0.890625 C 0.984375 -1.203125 0.671875 -1.550781 0.453125 -1.9375 L 1.6875 -3.4375 L 1.890625 -3.4375 C 2.222656 -2.925781 2.648438 -2.519531 3.171875 -2.21875 C 3.703125 -1.925781 4.316406 -1.78125 5.015625 -1.78125 C 5.617188 -1.78125 6.070312 -1.90625 6.375 -2.15625 C 6.6875 -2.40625 6.84375 -2.753906 6.84375 -3.203125 C 6.84375 -3.472656 6.789062 -3.695312 6.6875 -3.875 C 6.59375 -4.050781 6.429688 -4.203125 6.203125 -4.328125 C 5.972656 -4.460938 5.664062 -4.578125 5.28125 -4.671875 L 3.828125 -5 C 2.804688 -5.238281 2.046875 -5.625 1.546875 -6.15625 C 1.046875 -6.695312 0.796875 -7.398438 0.796875 -8.265625 C 0.796875 -8.910156 0.957031 -9.472656 1.28125 -9.953125 C 1.601562 -10.441406 2.066406 -10.820312 2.671875 -11.09375 C 3.285156 -11.363281 4.019531 -11.5 4.875 -11.5 C 5.75 -11.5 6.492188 -11.382812 7.109375 -11.15625 C 7.734375 -10.925781 8.265625 -10.570312 8.703125 -10.09375 L 7.59375 -8.578125 L 7.390625 -8.578125 C 7.078125 -8.910156 6.710938 -9.160156 6.296875 -9.328125 C 5.878906 -9.492188 5.40625 -9.578125 4.875 -9.578125 C 4.257812 -9.578125 3.789062 -9.46875 3.46875 -9.25 C 3.144531 -9.039062 2.984375 -8.742188 2.984375 -8.359375 C 2.984375 -8.003906 3.097656 -7.71875 3.328125 -7.5 C 3.554688 -7.289062 3.945312 -7.125 4.5 -7 L 5.984375 -6.703125 C 7.085938 -6.460938 7.882812 -6.066406 8.375 -5.515625 C 8.875 -4.960938 9.125 -4.238281 9.125 -3.34375 C 9.125 -2.632812 8.96875 -2.015625 8.65625 -1.484375 C 8.351562 -0.960938 7.894531 -0.554688 7.28125 -0.265625 C 6.664062 0.015625 5.910156 0.15625 5.015625 0.15625 Z M 5.015625 0.15625 "/></g></g></g><g fill="#e7e3dd" fill-opacity="1"><g transform="translate(178.558955, 249.585027)"><g/></g></g><g fill="#e7e3dd" fill-opacity="1"><g transform="translate(182.30107, 249.585027)"><g><path d="M 5.015625 0.15625 C 4.234375 0.15625 3.535156 0.0625 2.921875 -0.125 C 2.304688 -0.320312 1.796875 -0.578125 1.390625 -0.890625 C 0.984375 -1.203125 0.671875 -1.550781 0.453125 -1.9375 L 1.6875 -3.4375 L 1.890625 -3.4375 C 2.222656 -2.925781 2.648438 -2.519531 3.171875 -2.21875 C 3.703125 -1.925781 4.316406 -1.78125 5.015625 -1.78125 C 5.617188 -1.78125 6.070312 -1.90625 6.375 -2.15625 C 6.6875 -2.40625 6.84375 -2.753906 6.84375 -3.203125 C 6.84375 -3.472656 6.789062 -3.695312 6.6875 -3.875 C 6.59375 -4.050781 6.429688 -4.203125 6.203125 -4.328125 C 5.972656 -4.460938 5.664062 -4.578125 5.28125 -4.671875 L 3.828125 -5 C 2.804688 -5.238281 2.046875 -5.625 1.546875 -6.15625 C 1.046875 -6.695312 0.796875 -7.398438 0.796875 -8.265625 C 0.796875 -8.910156 0.957031 -9.472656 1.28125 -9.953125 C 1.601562 -10.441406 2.066406 -10.820312 2.671875 -11.09375 C 3.285156 -11.363281 4.019531 -11.5 4.875 -11.5 C 5.75 -11.5 6.492188 -11.382812 7.109375 -11.15625 C 7.734375 -10.925781 8.265625 -10.570312 8.703125 -10.09375 L 7.59375 -8.578125 L 7.390625 -8.578125 C 7.078125 -8.910156 6.710938 -9.160156 6.296875 -9.328125 C 5.878906 -9.492188 5.40625 -9.578125 4.875 -9.578125 C 4.257812 -9.578125 3.789062 -9.46875 3.46875 -9.25 C 3.144531 -9.039062 2.984375 -8.742188 2.984375 -8.359375 C 2.984375 -8.003906 3.097656 -7.71875 3.328125 -7.5 C 3.554688 -7.289062 3.945312 -7.125 4.5 -7 L 5.984375 -6.703125 C 7.085938 -6.460938 7.882812 -6.066406 8.375 -5.515625 C 8.875 -4.960938 9.125 -4.238281 9.125 -3.34375 C 9.125 -2.632812 8.96875 -2.015625 8.65625 -1.484375 C 8.351562 -0.960938 7.894531 -0.554688 7.28125 -0.265625 C 6.664062 0.015625 5.910156 0.15625 5.015625 0.15625 Z M 5.015625 0.15625 "/></g></g></g><g fill="#e7e3dd" fill-opacity="1"><g transform="translate(192.032117, 249.585027)"><g><path d="M 6.171875 0.15625 C 5.140625 0.15625 4.222656 -0.0507812 3.421875 -0.46875 C 2.628906 -0.894531 2.007812 -1.539062 1.5625 -2.40625 C 1.113281 -3.28125 0.890625 -4.367188 0.890625 -5.671875 C 0.890625 -6.960938 1.113281 -8.039062 1.5625 -8.90625 C 2.007812 -9.78125 2.628906 -10.429688 3.421875 -10.859375 C 4.222656 -11.285156 5.140625 -11.5 6.171875 -11.5 C 7.210938 -11.5 8.128906 -11.285156 8.921875 -10.859375 C 9.710938 -10.441406 10.332031 -9.796875 10.78125 -8.921875 C 11.226562 -8.046875 11.453125 -6.960938 11.453125 -5.671875 C 11.453125 -4.367188 11.226562 -3.28125 10.78125 -2.40625 C 10.332031 -1.53125 9.710938 -0.882812 8.921875 -0.46875 C 8.128906 -0.0507812 7.210938 0.15625 6.171875 0.15625 Z M 6.171875 -1.78125 C 7.140625 -1.78125 7.875 -2.085938 8.375 -2.703125 C 8.882812 -3.328125 9.140625 -4.316406 9.140625 -5.671875 C 9.140625 -7.023438 8.882812 -8.007812 8.375 -8.625 C 7.875 -9.25 7.140625 -9.5625 6.171875 -9.5625 C 5.210938 -9.5625 4.476562 -9.25 3.96875 -8.625 C 3.457031 -8.007812 3.203125 -7.023438 3.203125 -5.671875 C 3.203125 -4.316406 3.457031 -3.328125 3.96875 -2.703125 C 4.476562 -2.085938 5.210938 -1.78125 6.171875 -1.78125 Z M 6.171875 -1.78125 "/></g></g></g><g fill="#e7e3dd" fill-opacity="1"><g transform="translate(204.374123, 249.585027)"><g><path d="M 3.71875 -11.328125 L 3.71875 -1.875 L 8.8125 -1.875 L 8.8125 0 L 1.46875 0 L 1.46875 -11.328125 Z M 3.71875 -11.328125 "/></g></g></g><g fill="#e7e3dd" fill-opacity="1"><g transform="translate(213.322624, 249.585027)"><g><path d="M 6 0.15625 C 4.445312 0.15625 3.289062 -0.210938 2.53125 -0.953125 C 1.78125 -1.691406 1.40625 -2.789062 1.40625 -4.25 L 1.40625 -11.328125 L 3.59375 -11.328125 L 3.59375 -4.265625 C 3.59375 -3.429688 3.789062 -2.804688 4.1875 -2.390625 C 4.59375 -1.984375 5.195312 -1.78125 6 -1.78125 C 7.613281 -1.78125 8.421875 -2.609375 8.421875 -4.265625 L 8.421875 -11.328125 L 10.609375 -11.328125 L 10.609375 -4.25 C 10.609375 -2.789062 10.226562 -1.691406 9.46875 -0.953125 C 8.71875 -0.210938 7.5625 0.15625 6 0.15625 Z M 6 0.15625 "/></g></g></g><g fill="#e7e3dd" fill-opacity="1"><g transform="translate(225.331481, 249.585027)"><g><path d="M 9.078125 -11.328125 L 9.078125 -9.453125 L 5.8125 -9.453125 L 5.8125 0 L 3.578125 0 L 3.578125 -9.453125 L 0.3125 -9.453125 L 0.3125 -11.328125 Z M 9.078125 -11.328125 "/></g></g></g><g fill="#e7e3dd" fill-opacity="1"><g transform="translate(234.721633, 249.585027)"><g><path d="M 3.71875 0 L 1.46875 0 L 1.46875 -11.328125 L 3.71875 -11.328125 Z M 3.71875 0 "/></g></g></g><g fill="#e7e3dd" fill-opacity="1"><g transform="translate(239.912558, 249.585027)"><g><path d="M 6.171875 0.15625 C 5.140625 0.15625 4.222656 -0.0507812 3.421875 -0.46875 C 2.628906 -0.894531 2.007812 -1.539062 1.5625 -2.40625 C 1.113281 -3.28125 0.890625 -4.367188 0.890625 -5.671875 C 0.890625 -6.960938 1.113281 -8.039062 1.5625 -8.90625 C 2.007812 -9.78125 2.628906 -10.429688 3.421875 -10.859375 C 4.222656 -11.285156 5.140625 -11.5 6.171875 -11.5 C 7.210938 -11.5 8.128906 -11.285156 8.921875 -10.859375 C 9.710938 -10.441406 10.332031 -9.796875 10.78125 -8.921875 C 11.226562 -8.046875 11.453125 -6.960938 11.453125 -5.671875 C 11.453125 -4.367188 11.226562 -3.28125 10.78125 -2.40625 C 10.332031 -1.53125 9.710938 -0.882812 8.921875 -0.46875 C 8.128906 -0.0507812 7.210938 0.15625 6.171875 0.15625 Z M 6.171875 -1.78125 C 7.140625 -1.78125 7.875 -2.085938 8.375 -2.703125 C 8.882812 -3.328125 9.140625 -4.316406 9.140625 -5.671875 C 9.140625 -7.023438 8.882812 -8.007812 8.375 -8.625 C 7.875 -9.25 7.140625 -9.5625 6.171875 -9.5625 C 5.210938 -9.5625 4.476562 -9.25 3.96875 -8.625 C 3.457031 -8.007812 3.203125 -7.023438 3.203125 -5.671875 C 3.203125 -4.316406 3.457031 -3.328125 3.96875 -2.703125 C 4.476562 -2.085938 5.210938 -1.78125 6.171875 -1.78125 Z M 6.171875 -1.78125 "/></g></g></g><g fill="#e7e3dd" fill-opacity="1"><g transform="translate(252.254564, 249.585027)"><g><path d="M 3.640625 0 L 1.46875 0 L 1.46875 -11.328125 L 4.03125 -11.328125 L 8.59375 -4.03125 L 8.796875 -4.0625 L 8.796875 -11.328125 L 10.9375 -11.328125 L 10.9375 0 L 8.65625 0 L 3.84375 -7.796875 L 3.640625 -7.765625 Z M 3.640625 0 "/></g></g></g></svg>